<!DOCTYPE svg PUBLIC "-//W3C//DTD SVG 1.1//EN" "http://www.w3.org/Graphics/SVG/1.1/DTD/svg11.dtd">
<!-- Created by: Easy Logo, www.easylogo.dev, Transformed by: Easy Logo Editor -->
<svg width="500px" height="100px" viewBox="0 0 120 24" fill="none" xmlns="http://www.w3.org/2000/svg">
      <g id="easylogo_bgCarrier" stroke-width="0"/>
      <g id="easylogo_tracerCarrier" stroke-linecap="round" stroke-linejoin="round" transform="translate(1.4399999999999995,1.4399999999999995), scale(0.88)"/>
      <g id="easylogo_iconAttributionCarrier">
<g id="easylogo_iconCarrier" fill="#c1fbe2" stroke="#c1fbe2" transform="translate(1.4399999999999995,1.4399999999999995), scale(0.88)"> <path d="M16 6.00008V4.2844C16 3.51587 16 3.13161 15.8387 2.88321C15.6976 2.66587 15.4776 2.5118 15.2252 2.45345C14.9366 2.38677 14.5755 2.51809 13.8532 2.78073L6.57982 5.4256C6.01064 5.63257 5.72605 5.73606 5.51615 5.91845C5.33073 6.07956 5.18772 6.28374 5.09968 6.51304C5 6.77264 5 7.07546 5 7.6811V12.0001M9 17.0001H15M9 13.5001H15M9 10.0001H15M8.2 21.0001H15.8C16.9201 21.0001 17.4802 21.0001 17.908 20.7821C18.2843 20.5903 18.5903 20.2844 18.782 19.9081C19 19.4802 19 18.9202 19 17.8001V9.20008C19 8.07997 19 7.51992 18.782 7.0921C18.5903 6.71577 18.2843 6.40981 17.908 6.21807C17.4802 6.00008 16.9201 6.00008 15.8 6.00008H8.2C7.0799 6.00008 6.51984 6.00008 6.09202 6.21807C5.71569 6.40981 5.40973 6.71577 5.21799 7.0921C5 7.51992 5 8.07997 5 9.20008V17.8001C5 18.9202 5 19.4802 5.21799 19.9081C5.40973 20.2844 5.71569 20.5903 6.09202 20.7821C6.51984 21.0001 7.07989 21.0001 8.2 21.0001Z" stroke="#000000" stroke-width="0.72" stroke-linecap="round" stroke-linejoin="round"/> </g>
</g>

      <g id="easylogo_text">
        <g id="easylogo_textInput" fill="#000" transform="translate(26.400000000000002 19.200000000000003)">
<path d="M4.82 1.02Q3.5 1.02 2.5 0.46Q1.5 -0.1 0.93 -1.11Q0.36 -2.12 0.36 -3.42Q0.36 -4.74 0.89 -5.89Q1.42 -7.04 2.34 -7.93Q3.26 -8.82 4.45 -9.32Q5.64 -9.82 6.96 -9.82Q8.38 -9.82 9.4 -9.16Q10.6 -8.42 10.6 -7.06Q10.6 -5.74 9.46 -4.92Q8.46 -4.22 7.06 -4.22Q5.1 -4.22 5.1 -5.94Q5.1 -6.44 5.36 -6.94Q5.66 -7.54 6.12 -7.54Q6.6 -7.54 6.6 -7.26Q6.6 -7.16 6.34 -7.16Q5.98 -7.16 5.77 -6.81Q5.56 -6.46 5.56 -6.06Q5.56 -5.5 5.94 -5.09Q6.32 -4.68 6.88 -4.68Q8.88 -4.68 9.72 -6Q10 -6.46 10 -6.96Q10 -7.72 9.54 -8.33Q9.08 -8.94 8.36 -9.22Q7.84 -9.42 7.1 -9.42Q5.44 -9.42 4.07 -8.52Q2.7 -7.62 1.9 -6.1Q1.22 -4.82 1.22 -3.52Q1.22 -2.36 1.76 -1.51Q2.3 -0.66 3.23 -0.18Q4.16 0.3 5.32 0.3Q7.56 0.3 9.06 -1.22L9.64 -1.96Q9.84 -2.22 10.1 -2.22Q10.24 -2.22 10.24 -2.08Q10.24 -1.98 10.04 -1.7Q9.52 -0.9 8.67 -0.29Q7.82 0.32 6.82 0.67Q5.82 1.02 4.82 1.02ZM12.64 0.14Q12.46 0.14 12.46 -0.12Q12.46 -0.8 13.2 -2.66Q12.76 -1.86 12.18 -1.04Q11.34 0.12 10.88 0.12Q10.24 0.12 10.24 -0.78Q10.24 -1.72 11.08 -3.24Q11.46 -3.94 12.24 -4.72Q13.16 -5.64 13.78 -5.64Q14.28 -5.64 14.28 -5.24Q14.28 -5.08 14.19 -4.82Q14.1 -4.56 13.98 -4.56Q13.96 -4.56 13.86 -4.74Q13.76 -4.9 13.64 -4.9Q13.22 -4.9 12.5 -4.08Q11.48 -2.92 11.08 -1.78Q10.78 -0.98 10.78 -0.5Q10.78 -0.22 10.92 -0.22Q11.24 -0.22 12.4 -1.96Q12.96 -2.78 13.3 -3.33Q13.64 -3.88 13.74 -4.14Q13.8 -4.3 14.07 -4.55Q14.34 -4.8 14.48 -4.8Q14.56 -4.8 14.56 -4.68Q14.56 -4.56 14.44 -4.26Q13.16 -1.14 13.16 -0.64Q13.16 -0.46 13.24 -0.46Q13.3 -0.46 13.62 -0.78Q13.94 -1.1 14.02 -1.1Q14.1 -1.1 14.1 -0.98Q14.1 -0.82 13.81 -0.55Q13.52 -0.28 13.17 -0.07Q12.82 0.14 12.64 0.14ZM17.54 0.24Q17.26 0.24 17.26 -0.24Q17.26 -1.14 18.06 -3.06Q17.78 -2.56 17.45 -2.1Q17.12 -1.64 16.78 -1.2Q15.74 0.12 15.18 0.12Q14.5 0.12 14.5 -0.82Q14.5 -1.84 15.42 -3.5Q15.88 -4.32 16.66 -5.1Q17.66 -6.1 18.32 -6.1Q18.84 -6.1 18.84 -5.78Q18.84 -5.66 18.74 -5.26Q18.66 -4.84 18.54 -4.84Q18.5 -4.84 18.42 -5.04Q18.34 -5.24 18.16 -5.24Q17.72 -5.24 16.94 -4.36Q15.84 -3.14 15.42 -1.92Q15.08 -0.94 15.08 -0.54Q15.08 -0.24 15.26 -0.24Q15.58 -0.24 16.84 -2Q17.32 -2.66 17.68 -3.2Q18.04 -3.74 18.3 -4.16Q18.52 -4.54 18.73 -4.91Q18.94 -5.28 19.12 -5.66L20.8 -9.24Q21.18 -10.04 21.64 -10.72Q22.4 -11.8 22.84 -11.8Q23 -11.8 23 -11.56Q23 -11.42 22.92 -11.12Q22.9 -11.1 22.6 -10.56Q22.3 -10.02 21.7 -8.96Q21 -7.74 20.4 -6.59Q19.8 -5.44 19.28 -4.38Q18.02 -1.78 18.02 -0.7Q18.02 -0.5 18.08 -0.34Q18.08 -0.32 18.1 -0.32Q18.14 -0.32 18.58 -0.7Q19.04 -1.06 19.2 -1.06Q19.24 -1.06 19.26 -1.04L19.26 -1Q19.26 -0.76 18.93 -0.47Q18.6 -0.18 18.2 0.03Q17.8 0.24 17.54 0.24ZM21.06 0.2Q19.98 0.2 19.98 -1.18L19.98 -1.28Q19.98 -3.18 21.62 -5.06Q22.4 -5.96 22.96 -5.96Q23.12 -5.96 23.2 -5.88Q23.18 -6.42 23.6 -6.42Q23.88 -6.42 23.88 -5.34Q23.88 -2.7 22.54 -2.7Q21.74 -2.7 21.16 -3.28Q20.54 -2.02 20.54 -1Q20.54 -0.18 21.08 -0.18Q21.32 -0.18 21.67 -0.45Q22.02 -0.72 22.36 -1.07Q22.7 -1.42 22.93 -1.69Q23.16 -1.96 23.16 -1.96Q23.24 -1.96 23.24 -1.84Q23.24 -1.6 23.02 -1.27Q22.8 -0.94 22.47 -0.62Q22.14 -0.3 21.8 -0.07Q21.46 0.16 21.22 0.2ZM22.38 -3.12Q22.78 -3.12 23.02 -3.76Q23.22 -4.24 23.22 -4.76L23.22 -5.08Q23.22 -5.3 23.21 -5.39Q23.2 -5.48 23.2 -5.42Q22 -4.98 21.36 -3.62Q22.04 -3.12 22.38 -3.12ZM33.76 0.9Q31.46 0.9 30.14 -0.68Q28.96 0.56 28.28 0.56Q27.72 0.56 27.42 -0.12Q27.18 -0.64 27.18 -1.26Q27.18 -2.12 27.48 -2.96Q27.86 -4.12 28.58 -4.12Q29.1 -4.12 29.58 -3.3L30.26 -2.04Q30.66 -2.62 31.09 -3.4Q31.52 -4.18 32 -5.12Q33.76 -8.62 34.76 -8.62Q35.24 -8.62 35.24 -8.02Q35.24 -7.66 35.02 -7.66Q34.82 -7.66 34.82 -7.88Q34.82 -7.94 34.86 -8.06L34.72 -8.2Q34.36 -8.2 32.86 -4.92Q31.74 -2.54 30.72 -1.34Q32.1 0.4 33.94 0.4Q34.76 0.4 35.51 0.01Q36.26 -0.38 36.74 -1.03Q37.22 -1.68 37.22 -2.46Q37.22 -3.26 36.54 -3.88Q35.9 -4.46 35.12 -4.6L34.46 -4.64Q34 -4.7 34 -4.92Q34 -5.3 34.44 -5.3L35 -5.26Q36.12 -5.26 36.92 -5.74Q37.9 -6.3 37.9 -7.34Q37.9 -8.5 36.14 -9.06Q34.98 -9.44 33.42 -9.44Q31.34 -9.44 29.88 -8.64Q27.98 -7.58 27.98 -6.22Q27.98 -5.66 28.34 -5.2Q28.7 -4.76 28.7 -4.78Q28.7 -4.7 28.6 -4.7Q28.44 -4.7 28.18 -4.84Q27.28 -5.3 27.28 -6.12Q27.28 -7.06 28.06 -7.92Q28.72 -8.64 29.7 -9.12Q31.32 -9.92 33.66 -9.92Q35.44 -9.92 36.8 -9.42Q38.7 -8.72 38.7 -7.28Q38.7 -5.22 35.92 -4.86Q36.82 -4.56 37.44 -3.84Q38.06 -3.12 38.06 -2.2Q38.06 -0.76 36.56 0.14Q35.28 0.9 33.76 0.9ZM28.42 0.04Q28.8 0.04 29.72 -1.24Q29.52 -1.58 29.17 -2.07Q28.82 -2.56 28.36 -3.18L28.34 -3.24L28.32 -3.24Q27.78 -2.32 27.78 -1.36Q27.78 -0.54 28.28 -0.04Q28.36 0.04 28.42 0.04ZM41.74 0.16Q41.58 0.16 41.58 -0.08Q41.58 -1.02 43.04 -4.02Q41.76 -2.22 41.26 -1.58Q39.88 0.12 39.08 0.12Q38.82 0.12 38.82 -0.14Q38.82 -0.68 40.42 -4.28Q40.5 -4.44 40.64 -4.76Q40.78 -5.08 40.98 -5.52Q41.2 -5.94 41.72 -5.94Q41.86 -5.94 41.86 -5.82Q41.86 -5.58 40.76 -3.4Q39.64 -1.2 39.64 -0.74Q39.64 -0.6 39.72 -0.58Q39.9 -0.58 40.8 -1.64Q41.12 -2.02 41.37 -2.33Q41.62 -2.64 41.8 -2.9Q41.84 -2.98 41.98 -3.19Q42.12 -3.4 42.32 -3.74L43.18 -5.14Q43.5 -5.66 43.8 -5.91Q44.1 -6.16 44.32 -6.16Q44.54 -6.16 44.54 -5.98Q44.54 -5.78 43.44 -3.44Q42.32 -1.04 42.32 -0.46Q42.32 -0.38 42.34 -0.38Q42.36 -0.38 42.8 -0.78Q43.2 -1.16 43.36 -1.16Q43.4 -1.12 43.4 -1.08Q43.4 -0.96 43.2 -0.75Q43 -0.54 42.71 -0.33Q42.42 -0.12 42.15 0.02Q41.88 0.16 41.74 0.16ZM40.48 4.86Q39.96 4.86 39.62 4.54Q39.28 4.22 39.28 3.7Q39.28 3.38 39.4 2.94Q39.56 2.36 39.76 2.36Q39.88 2.36 39.88 2.62Q39.88 2.7 39.87 2.84Q39.86 2.98 39.84 3.14Q39.82 3.3 39.81 3.43Q39.8 3.56 39.8 3.66Q39.8 4.48 40.4 4.48Q42.58 4.48 45.6 -4.48L46.02 -5.66L45.04 -5.7Q44.82 -5.7 44.82 -5.96Q44.82 -6.04 45.58 -6.1L46.16 -6.12Q46.2 -6.2 46.24 -6.24L47.04 -8.64Q47.3 -9.34 47.54 -9.92Q47.78 -10.5 48.04 -10.94Q48.86 -12.44 49.8 -12.44Q50.8 -12.44 50.8 -11.3Q50.8 -10.76 50.54 -10.76Q50.5 -10.76 50.4 -11.24Q50.28 -11.7 49.92 -11.7Q49.16 -11.7 48.1 -9.24L46.88 -6.2L46.82 -6.06Q46.96 -6.08 47.17 -6.09Q47.38 -6.1 47.66 -6.1Q48.36 -6.1 48.78 -5.98L48.82 -5.96L48.72 -5.9Q48.22 -5.72 47.7 -5.72Q47.3 -5.72 47.06 -5.72Q46.82 -5.72 46.72 -5.7L46.2 -4.26Q45.52 -2.3 45.08 -1.07Q44.64 0.16 44.42 0.66Q43.02 3.9 41.44 4.6Q40.86 4.86 40.48 4.86ZM43.64 4.86Q43.12 4.86 42.78 4.54Q42.44 4.22 42.44 3.7Q42.44 3.38 42.56 2.94Q42.72 2.36 42.92 2.36Q43.04 2.36 43.04 2.62Q43.04 2.7 43.03 2.84Q43.02 2.98 43 3.14Q42.98 3.3 42.97 3.43Q42.96 3.56 42.96 3.66Q42.96 4.48 43.56 4.48Q45.74 4.48 48.76 -4.48L49.18 -5.66L48.2 -5.7Q47.98 -5.7 47.98 -5.96Q47.98 -6.04 48.74 -6.1L49.32 -6.12Q49.36 -6.2 49.4 -6.24L50.2 -8.64Q50.46 -9.34 50.7 -9.92Q50.94 -10.5 51.2 -10.94Q52.02 -12.44 52.96 -12.44Q53.96 -12.44 53.96 -11.3Q53.96 -10.76 53.7 -10.76Q53.66 -10.76 53.56 -11.24Q53.44 -11.7 53.08 -11.7Q52.32 -11.7 51.26 -9.24L50.04 -6.2L49.98 -6.06Q50.12 -6.08 50.33 -6.09Q50.54 -6.1 50.82 -6.1Q51.52 -6.1 51.94 -5.98L51.98 -5.96L51.88 -5.9Q51.38 -5.72 50.86 -5.72Q50.46 -5.72 50.22 -5.72Q49.98 -5.72 49.88 -5.7L49.36 -4.26Q48.68 -2.3 48.24 -1.07Q47.8 0.16 47.58 0.66Q46.18 3.9 44.6 4.6Q44.02 4.86 43.64 4.86ZM51.7 0.2Q50.62 0.2 50.62 -1.18L50.62 -1.28Q50.62 -3.18 52.26 -5.06Q53.04 -5.96 53.6 -5.96Q53.76 -5.96 53.84 -5.88Q53.82 -6.42 54.24 -6.42Q54.52 -6.42 54.52 -5.34Q54.52 -2.7 53.18 -2.7Q52.38 -2.7 51.8 -3.28Q51.18 -2.02 51.18 -1Q51.18 -0.18 51.72 -0.18Q51.96 -0.18 52.31 -0.45Q52.66 -0.72 53 -1.07Q53.34 -1.42 53.57 -1.69Q53.8 -1.96 53.8 -1.96Q53.88 -1.96 53.88 -1.84Q53.88 -1.6 53.66 -1.27Q53.44 -0.94 53.11 -0.62Q52.78 -0.3 52.44 -0.07Q52.1 0.16 51.86 0.2ZM53.02 -3.12Q53.42 -3.12 53.66 -3.76Q53.86 -4.24 53.86 -4.76L53.86 -5.08Q53.86 -5.3 53.85 -5.39Q53.84 -5.48 53.84 -5.42Q52.64 -4.98 52 -3.62Q52.68 -3.12 53.02 -3.12ZM55.44 0.12Q54.76 0.12 54.76 -0.68Q54.76 -1.1 54.93 -1.75Q55.1 -2.4 55.46 -3.26L56.54 -5.86Q56.46 -5.86 56.36 -5.87Q56.26 -5.88 56.1 -5.88L55.66 -5.9Q55.44 -5.9 55.44 -6.16Q55.44 -6.28 55.78 -6.32L56.22 -6.36Q56.42 -6.38 56.57 -6.4Q56.72 -6.42 56.82 -6.42Q57.04 -6.96 57.41 -7.76Q57.78 -8.56 58.3 -9.6Q59.02 -10.76 59.66 -10.76Q59.82 -10.76 59.82 -10.62Q59.82 -10.48 58.84 -8.72Q58.32 -7.76 58.01 -7.18Q57.7 -6.6 57.62 -6.38Q59.12 -6.38 59.12 -6.16Q59.12 -5.86 57.34 -5.86Q55.32 -1.06 55.32 -0.56Q55.32 -0.24 55.56 -0.24Q55.76 -0.24 56.28 -0.7Q56.74 -1.14 56.84 -1.14Q56.96 -1.14 56.96 -0.96Q56.96 -0.76 56.68 -0.5Q56.4 -0.24 56.04 -0.06Q55.68 0.12 55.44 0.12Z"/>
</g>
      </g>
      </svg>